<svg xmlns="http://www.w3.org/2000/svg" version="1.1" xmlns:xlink="http://www.w3.org/1999/xlink" width="512" height="512" x="0" y="0" viewBox="0 0 512 511" style="enable-background:new 0 0 512 512" xml:space="preserve" class=""><g><path d="M128.379 272.066h-22.961a15.078 15.078 0 0 0-13.844 9.11L28.012 429.18l150.953-77.098c-18.07-25.004-35.95-52.582-50.586-80.016zM420.422 281.176a15.073 15.073 0 0 0-13.84-9.11h-22.96c-27.642 51.797-67.911 105.325-93.528 134.774-18.016 20.664-50.196 20.64-68.184 0-1.84-2.113-11.445-13.235-24.676-30.336L170.02 390.41l102.945 102.746 195.062-101.125zM9.441 472.434l-8.21 19.12C-3.02 501.45 4.26 512.5 15.07 512.5h221.05c1.383-1.027 1.399-.965 8.82-4.813L141.844 404.805zM510.77 491.555l-30.844-71.82L300.988 512.5H496.93c10.785 0 18.097-11.031 13.84-20.945zM271.059 135.824c0-8.289-6.758-15.027-15.059-15.027-8.305 0-15.059 6.738-15.059 15.027 0 8.285 6.754 15.028 15.059 15.028 8.3 0 15.059-6.743 15.059-15.028zm0 0" fill="#70d853" opacity="1" data-original="#000000" class=""></path><path d="M267.363 386.117c5.07-5.82 124.16-143.578 124.16-238.273 0-195.266-271.046-197.649-271.046 0 0 94.695 119.09 232.453 124.16 238.273 6.004 6.887 16.734 6.88 22.726 0zm-56.539-250.293c0-24.86 20.266-45.082 45.176-45.082 24.906 0 45.172 20.223 45.172 45.082 0 24.856-20.266 45.078-45.172 45.078-24.91 0-45.176-20.222-45.176-45.078zm0 0" fill="#70d853" opacity="1" data-original="#000000" class=""></path></g></svg>